<svg version="1.2" xmlns="http://www.w3.org/2000/svg" viewBox="0 0 683 683" width="683" height="683">
	<title>babydog_Original-svg</title>
	<style>
		.s0 { fill: #231b15 } 
		.s1 { fill: #211b17 } 
		.s2 { fill: #261c16 } 
		.s3 { fill: #221a15 } 
		.s4 { fill: #251c15 } 
		.s5 { fill: #261c15 } 
		.s6 { fill: #251c16 } 
		.s7 { fill: #261d16 } 
		.s8 { fill: #231b16 } 
		.s9 { fill: #241b15 } 
		.s10 { fill: #281d15 } 
		.s11 { fill: #251b15 } 
		.s12 { fill: #201a16 } 
		.s13 { fill: #e4792c } 
		.s14 { fill: #f4c026 } 
		.s15 { fill: #e7e6e4 } 
		.s16 { fill: #dfdedc } 
		.s17 { fill: #ecebe9 } 
		.s18 { fill: #dddcda } 
		.s19 { fill: #e9e7e5 } 
		.s20 { fill: #e4e3e1 } 
		.s21 { fill: #e6e5e3 } 
		.s22 { fill: #e5e4e2 } 
		.s23 { fill: #fdfcfa } 
		.s24 { fill: #ebeae8 } 
		.s25 { fill: #e2e1df } 
		.s26 { fill: #383432 } 
		.s27 { fill: #383533 } 
		.s28 { fill: #cfcecc } 
		.s29 { fill: #3d3a38 } 
		.s30 { fill: #c0bebc } 
		.s31 { fill: #332f2d } 
		.s32 { fill: #dfdddb } 
		.s33 { fill: #110f0c } 
		.s34 { fill: #211c16 } 
		.s35 { fill: #201b16 } 
		.s36 { fill: #2d2927 } 
		.s37 { fill: #fcfbf9 } 
		.s38 { fill: #efbc25 } 
		.s39 { fill: #e8b725 } 
		.s40 { fill: #e9b825 } 
		.s41 { fill: #e5b425 } 
		.s42 { fill: #eebb25 } 
		.s43 { fill: #f2be26 } 
		.s44 { fill: #141311 } 
		.s45 { fill: #131210 } 
	</style>
	<path id="Layer" class="s0" d="m374.8 1c4.7 10.4 9.2 20.9 14.1 32.5-11.7-1.4-22.4-2.7-34.3-4.1 6.8-9.7 13.1-18.7 19.4-28.1 0-0.3 0.5-0.3 0.7-0.3z"/>
	<path id="Layer" fill-rule="evenodd" class="s1" d="m547.4 431.4c-10.5 13.3-20.8 26.3-31.2 39.5 0.4 0.2 1.2 0.8 2.1 0.9 42.4 7.9 84.1 18.8 125.1 32.3 4.6 1.5 4.1 3.6 2.6 7-17.4 40.2-34.7 80.4-51.9 120.7-2 4.7-3.9 6.2-9.2 4.6-17.2-5.2-34.5-9.9-51.9-14.5-8.7-2.3-17.5-4-26.3-6-0.8-0.2-1.7-0.3-2.4-0.2-2.7 0.7-8.4 14.4-6.8 16.7 9.5 13.3 3.8 29.6-3.8 38.9-4.6 5.6-14.1 7.5-21.1 3.5-7.3-4.1-14-9.4-21.3-13.8-3.1-1.8-7-3.6-10.5-3.6q-97.2-0.4-194.4-0.1c-3.5 0-7.1 2.2-10.2 4.1-6.6 4-12.5 9-19.2 12.5-10.7 5.7-19.8 2.9-26.1-7.5-6.6-11-8.2-22.3-0.9-33.9 0.8-1.3 0.6-3.7 0.1-5.3-0.6-2.1-2.4-3.8-2.8-5.8-1.2-5.4-3.9-6.3-9-4.9-25.2 6.8-50.5 13.1-75.7 20-4.5 1.3-6.4 0.5-8.2-3.8-17.5-41.4-35.3-82.7-52.9-124.1-0.4-0.7-0.5-1.5-0.9-2.7 42.9-15.6 87.1-25.8 132.1-35.3-4.7-5.2-8.9-9.8-13.1-14.4-21.5-24.3-37.4-51.7-47.9-82.4-8.3-24.7-13-49.9-13.2-76-0.2-23.7 2.5-47.1 8.9-70.1 12.8-45.3 36.8-83.7 71.3-115.4 21.8-20.2 47-35.3 74.6-46.6 36.7-14.9 74.8-18.8 114-16.1 22.6 1.5 44.1 7.3 64.9 15.1 26.7 10.1 51.1 24.9 72.8 43.9 27.4 24.1 49.2 52.6 63.7 86.1 16 36.6 23.5 75.1 20.6 115.3-2.8 37.6-13.2 72.9-31.9 105.6-3.1 5.3-6.5 10.4-10 15.8zm-256.5 202.6c2-0.8 5.3-1.1 5.7-2.4 0.5-1.7-0.7-5.3-2-5.9-2.3-0.9-5.3 0-8.6 0.3-0.9 3.4-2.6 6.8-2.6 10.2 0 2.3 2 5.5 4 6.6 2.1 1 5.3 0 7.9-0.1q0-0.7-0.1-1.4c-6.6-0.5-6.8-0.7-6.2-7.2 0.4 0 0.8-0.1 1.9-0.1zm123.4-13.8c-1 1.8-3 3.7-2.8 5.4 0.3 2.8 1.7 5.6 3.4 7.8 0.5 0.8 3.3-0.1 6-0.1-1.3 2.9-2.5 5.7-3.7 8.9q0.2-0.1 0.6-0.1c0.6 0 1.4 0.2 1.9-0.1 5.9-2.9 9.2-16 5.1-21.1-0.9-1.1-3.1-1.3-5.4-1.9-1.5 0.3-2.9 0.6-5.1 1.2zm2.9 22c-0.5 0.1-0.7 0.3-0.8 0.5q0.3-0.2 0.7-0.3 0-0.1 0.1-0.2zm-18.6-23.5c-4.7 2.2-5.9 5.5-4.8 10.9 1.1 5.1 4.5 4.9 9 4.8-1.7 2.9-3.4 5.7-5 8.4 5.4-0.7 9.6-5.7 10.4-12.9 0.7-6.3-1.1-9.6-6.9-11.9-0.7 0.1-1.4 0.2-2.7 0.7zm-90.7 23.8c4.1-3.7 4.1-7.3 0.2-10.7-1.8-1.6-3.3-3.6-5.7-6.3-0.8 1.3-2.7 3.1-2.3 4.1 0.8 2.3 2.4 4.6 4.3 6.1 2.2 1.7 3.5 3.3 1.6 6.1q-3.1-1.2-6.2-2.3c-0.4 4.4 1 5.1 8.1 3zm-43.1 0.7c1-0.1 2.1-0.2 4-0.1 8.1-1.1 10.6-4.9 10.3-15.4-0.2-7.6-3.5-10.8-11.9-10.6-1.6 0.6-3.2 1.2-4.8 2.8 0.1 6.7 0.1 13.4 0.3 20.1 0 1 0.8 2 2.1 3.2zm59.3-18.1c0 0 0 0.3-0.8 0.4-3.9-1.6-7.2-0.4-7.9 3.5-0.7 3.5-0.6 7.2-0.3 10.8 0.2 1.3 1.8 3.1 3 3.4 1.2 0.3 2.9-1 4.6-1.6-3.2-4-4.1-11.5-1.9-14.7 0.6-0.8 2.2-0.9 3.5-0.5 0.2 0.2 0.4 0.4 0.4 1.1 0.1 0.5 0.3 1 0.3 2.2 0 0.8 0.1 1.6-0.1 2.9-0.1 0.8-0.1 1.6-0.5 3.2-0.1 7.4 0.4 8 5.2 6.8 0-9.1 0-18.2 0-27.6-1.7 0.2-3.1 0.3-5.1 0.2-0.1 0.6-0.3 1.2-0.4 2.5 0.2 0.5 0.5 0.9 0.7 2.2-0.1 1.7-0.3 3.5-0.7 5.2zm17.3 8.6c2.8 0.2 6 1.1 6-3.4 0-4-2.4-5.6-6-5.8-5.3-0.2-8.9 5.2-7.9 11.9 1.1 7.2 6.4 9.3 11.3 5.6-1.8-1.3-5-2.5-5.5-4.4-1.1-3.8-1.6-8.1 1.1-11.6q0.7 0 1.5 0.1c0 1.8 0 3.7-0.6 5.8-0.1 0.4-0.2 0.7 0.1 1.8zm38.5-12.7q0.5-1 1-2c-0.6 0.3-1.3 0.6-2.6 0.9-3.8 2.4-5 5.7-3.3 9.7 1.6 4.1 4.4 6.4 10 3.4-0.9 2.7-1.1 4.2-2 5.3-0.8 1.2-2.2 1.9-3.4 2.9 7.5-0.4 11-6.7 9.7-15.3-0.5-3.6-0.8-7.3-5.4-6.8 0.3 3.1 1 5.9 0.8 8.6-0.1 1.4-1.8 2.6-2.7 3.9-0.9-1.2-2.4-2.3-2.7-3.6-0.4-2.2 0-4.6 0.6-7zm180.9-249.8c13.8-35.8 16.5-73 11.1-110.6-6.5-45.1-25.4-84.9-55.6-119.1-25.4-28.7-56-49.8-91.8-63.1-28.8-10.7-58.7-15-89.6-13.9-24.1 0.8-47.3 5.4-69.8 13.4-30.8 10.9-57.6 28.3-81.2 50.7-25.6 24.5-44 53.6-56.3 86.8-16.2 44.2-18.6 89.1-7.1 134.6 11.2 44.3 34 81.9 67.1 113.3 3.3 3.1 6.3 3.9 10.6 3.4 30.1-3.6 60.1-8.6 90.3-10 37.7-1.8 75.6-1.8 113.3-0.1 29.7 1.4 59.2 6.5 88.8 10.1 3.8 0.5 6.5-0.4 9.3-3.1 27-26.1 48.3-55.9 60.9-92.4zm32.1 232.2c12.9-29.9 25.7-59.7 38.7-89.9-3-1.2-5.1-2.3-7.4-2.9-22.9-6.2-45.8-13-68.9-18.4-23.2-5.4-46.6-10.1-70.1-13.8-45.5-7.1-91.3-10.3-137.4-10.6-36.6-0.2-73 1.7-109.3 5.8-34.9 3.9-69.6 9.4-103.8 18-24.7 6.2-49.1 13.3-73.8 19.9-3.5 0.9-4.1 2.7-2.7 5.8 0.5 1 0.8 2.2 1.2 3.2 14.2 32.8 28.4 65.5 42.3 98.3 1.7 3.8 3.3 4.2 7.1 3.2 24-6.4 48-12.6 72.1-18.4 4-1 5.9-2.5 7-6.3 2.7-8.7 11.2-15.4 19.5-14 5.6 1 11.2 4 16.1 7.2 4.8 3.1 9.5 3.8 15 3.2 16.1-1.8 32.2-3.7 48.3-4.5 51-2.7 101.9-2.8 152.7 3.8 11.2 1.4 21.8 2 30.9-6.3 0.6-0.6 1.4-0.8 2.2-1.2 10.3-5 21.6-2.3 25.6 8.4 2.9 8 7.8 10.1 14.8 10.9 1.1 0.2 2.3 0.6 3.4 0.9 21.3 5.5 42.5 10.9 63.8 16.6 3 0.8 4.6 0.3 5.7-2.5 2.2-5.3 4.5-10.5 7-16.4zm-247.4-4.1q-39.1 1.5-78.1 3 0 0.9 0 1.8c51 1.5 101.9 2.6 152.9 0q0-0.7 0-1.4c-24.6-1.2-49.2-2.3-74.8-3.4zm19.1 43c2 0.4 4 0.8 5.7 1.1 0-8.6 0-16.4 0-24.8-2.6 0.6-4.6 1.1-6.2 1.5 2.6 7.3 2 14.5 0.5 22.2z"/>
	<path id="Layer" class="s2" d="m139.1 461c-0.2 1.1-0.5 2.5-1 2.6-10.5 1.3-21 2.5-32.8 3.8 5-11.2 9.5-21.2 14.4-32.3 6.8 9.1 13 17.4 19.4 25.9z"/>
	<path id="Layer" class="s2" d="m71.9 247.1c-5.2-4.6-10.2-9-16.2-14.3 11.6-3.7 22-7 33.9-10.9-2.8 12.5-5.2 23.1-7.8 34.4-3.4-3.2-6.5-6.1-9.9-9.2z"/>
	<path id="Layer" class="s3" d="m200.1 72c-1.2 0.6-2 1-3.4 1.6 0-11.4 0-22.3 0-34.5 10.3 6 19.9 11.6 30.5 17.7-9.5 5.3-18.1 10.2-27.1 15.2z"/>
	<path id="Layer" class="s4" d="m82.8 185.2c-2.6-3.6-5.1-6.9-8.1-11 12.1-1.1 23.2-2.2 35.2-3.2-4.8 10.7-9.3 20.7-14.2 31.6-4.5-6-8.6-11.6-12.9-17.4z"/>
	<path id="Layer" class="s5" d="m72.3 360.6c-5.3-1.7-10.2-3.3-16.3-5.2 8.8-8.1 16.9-15.5 25.7-23.7 2.7 12 5 22.8 7.6 34.5-6.3-2.1-11.5-3.8-17-5.6z"/>
	<path id="Layer" class="s6" d="m605 337.1c0.5-1.6 0.9-2.9 1.5-4.9 8.6 7.7 16.7 15 25.6 23-11.1 3.7-21.6 7.1-33.4 11 2.2-10.4 4.3-19.5 6.3-29.1z"/>
	<path id="Layer" class="s7" d="m114.3 121.9c8.8 0.9 17.1 1.8 26.5 2.8-7 9.4-13.5 18.2-20.7 27.9-5.1-10.9-9.7-20.9-14.8-31.8 3.7 0.5 6.1 0.8 9 1.1z"/>
	<path id="Layer" class="s8" d="m559.1 140.9c-3.9-5.3-7.6-10.4-11.7-16.1 11.8-1.3 23-2.5 35-3.8-4.8 10.7-9.3 20.9-14.3 32.2-3.4-4.6-6.1-8.3-9-12.3z"/>
	<path id="Layer" class="s5" d="m608.1 277.9c1.6 0.1 3.2 0.4 4.6 1.2 6.8 3.9 13.5 7.8 20.2 11.8 1.6 0.9 2.9 2 5 3.5-10.4 5.9-20 11.4-30 17 0-11.4 0-22.3 0.2-33.5z"/>
	<path id="Layer" class="s4" d="m152.3 100.8c-1.8-8.3-3.4-16.2-5.3-25.3 11.2 3.6 21.7 6.9 33.2 10.6-8.9 8-17 15.4-25.9 23.4-0.8-3.3-1.4-5.8-2-8.7z"/>
	<path id="Layer" class="s0" d="m564.5 465.4c-5.7-0.7-10.9-1.4-17-2.2 6.9-9.4 13.3-18 20.3-27.5 5 10.7 9.7 20.7 14.9 32-6.6-0.9-12.2-1.5-18.2-2.3z"/>
	<path id="Layer" class="s9" d="m321.4 12.6c4 5.5 7.9 10.7 12.3 16.8-11.8 1.4-22.8 2.7-35 4.2 5-11 9.6-20.9 14.6-31.9 3 4 5.5 7.3 8.1 10.9z"/>
	<path id="Layer" class="s10" d="m79.7 290c0 7.2 0 13.8 0 21.3-9.6-5.5-18.8-10.8-29.5-17 10.3-6.2 19.4-11.8 29.5-17.9 0 5.1 0 9.1 0 13.6z"/>
	<path id="Layer" class="s0" d="m597.1 196.1c-1.6 2.3-3.1 4.3-4.6 6.5-4.5-10.3-9-20.4-13.9-31.3 11.6 0.8 22.4 1.7 34.6 2.6-5.7 7.9-10.8 14.9-16.1 22.2z"/>
	<path id="Layer" class="s11" d="m277.3 37.7c-10.3 3.5-20.4 6.8-31.4 10.5 2.3-11.5 4.5-22.1 6.8-33.4 1.5 0.9 2.6 1.5 3.5 2.3 6.4 5.6 12.7 11.2 18.9 17 1.1 0.9 1.7 2.3 2.2 3.6z"/>
	<path id="Layer" class="s5" d="m81.1 414c-1.9-0.3-3.3-0.5-5.6-0.9 6.8-9.3 13.1-18 20.2-27.6 4.8 10.9 9 20.7 13.8 31.6-10-1.1-19-2.1-28.4-3.1z"/>
	<path id="Layer" class="s8" d="m535 104.7c-0.7 1.5-1.1 2.7-1.8 4.4-8.4-7.6-16.5-15-25.6-23.2 11.8-3.6 22.2-6.7 33.2-10.1-2 9.9-3.8 19.2-5.8 28.9z"/>
	<path id="Layer" class="s0" d="m441.6 45c-0.7 1-1.8 2.2-2.4 2.1-4.8-1.4-9.5-3.2-14.2-4.7-5.2-1.6-10.5-3.1-16-4.7 8.6-7.8 17-15.3 25.9-23.3 2.3 10.4 4.4 20.3 6.7 30.6z"/>
	<path id="Layer" class="s12" d="m489.6 73c-9.5-5.3-18.6-10.4-28.8-16.3 10.3-6 19.7-11.5 30.3-17.7 0 8.8 0.1 16.5-0.1 24.1 0 3.4-0.7 6.7-1.4 9.9z"/>
	<path id="Layer" class="s9" d="m608.1 406.9c1.4 2 2.6 3.8 4.5 6.4-11.7 1.4-22.4 2.6-34.3 4 4.9-10.8 9.3-20.7 14.3-31.6 5.6 7.6 10.4 14.3 15.5 21.2z"/>
	<path id="Layer" class="s9" d="m613.2 226.9c6.2 2.1 11.9 4.1 18.5 6.4-8.5 7.7-16.4 14.7-25 22.4-2.6-11.4-5.1-22-7.9-33.7 5.2 1.7 9.6 3.2 14.4 4.9z"/>
	<path id="Layer" fill-rule="evenodd" class="s13" d="m560.7 371.6c-12.5 36.1-33.8 65.9-60.8 92-2.8 2.7-5.5 3.6-9.3 3.1-29.6-3.6-59.1-8.7-88.8-10.1-37.7-1.7-75.6-1.7-113.3 0.1-30.2 1.4-60.2 6.4-90.3 10-4.3 0.5-7.3-0.3-10.6-3.4-33.1-31.4-55.9-69-67.1-113.3-11.5-45.5-9.1-90.4 7.1-134.6 12.3-33.2 30.7-62.3 56.3-86.8 23.6-22.4 50.4-39.8 81.2-50.7 22.5-8 45.7-12.6 69.8-13.4 30.9-1.1 60.8 3.2 89.6 13.9 35.8 13.3 66.4 34.4 91.8 63.1 30.2 34.2 49.1 74 55.6 119.1 5.4 37.6 2.7 74.8-11.2 111zm-349.3-86.5c8 0.8 15.9 1.5 24.4 2.3 0 3.3 0.1 7.4 0 11.5-0.3 18.3 3.3 35.8 10.4 52.6 12.5 29.5 29.4 55.9 57.6 72.8 28 16.7 56.6 16.8 84.8 0.1 18.9-11.2 33.1-27.1 44.3-45.9 15.2-25.6 25-52.8 24.4-83.1-0.1-3-0.3-6.1 0.1-9 0.2-1.2 2.2-3 3.2-2.9 12.2 0.8 22.6-4.3 33.2-9.5 16.1-7.8 20.6-24.6 18.6-37.5-4-26.4-8.3-52.6-12.8-78.9-0.5-2.9-2-6-3.9-8.4-10.4-13.2-25.1-16.5-41.1-9.2-17.1 7.9-33.9 16.4-51.1 24.1-10.1 4.6-18.3 10.7-22.4 21.5-0.5 1.4-3.1 2.9-4.8 2.9q-33.2 0.5-66.4 0.5c-1.5 0-3.3-1.3-4.5-2.5-4.1-4.4-7.3-10.1-12.2-13.3-7.5-5.1-16.1-8.7-24.3-12.6-14.2-6.6-28.3-13.6-42.8-19.2-14.7-5.8-35.1 5.2-37.7 19.9-4.7 26.4-9.1 52.8-12.9 79.3-2.5 17.6 4.7 29.9 20.5 37.9 4.8 2.4 9.8 4.3 15.4 6.6z"/>
	<path id="Layer" fill-rule="evenodd" class="s14" d="m592.7 603.8c-2.3 5.5-4.6 10.7-6.8 16-1.1 2.8-2.7 3.3-5.7 2.5-21.3-5.7-42.5-11.1-63.8-16.6-1.1-0.3-2.3-0.7-3.4-0.9-7-0.8-11.9-2.9-14.8-10.9-4-10.7-15.3-13.4-25.6-8.4-0.8 0.4-1.6 0.6-2.2 1.2-9.1 8.3-19.7 7.7-30.9 6.3-50.8-6.6-101.7-6.5-152.7-3.8-16.1 0.8-32.2 2.7-48.3 4.5-5.5 0.6-10.2-0.1-15-3.2-4.9-3.2-10.5-6.2-16.1-7.2-8.3-1.4-16.8 5.3-19.5 14-1.1 3.8-3 5.3-7 6.3-24.1 5.8-48.1 12-72.1 18.4-3.8 1-5.4 0.6-7.1-3.2-13.9-32.8-28.1-65.5-42.3-98.3-0.4-1-0.7-2.2-1.2-3.2-1.4-3.1-0.8-4.9 2.7-5.8 24.7-6.6 49.1-13.7 73.8-19.9 34.2-8.6 68.9-14.1 103.8-18 36.3-4.1 72.7-6 109.3-5.8 46.1 0.3 91.9 3.5 137.4 10.6 23.5 3.7 46.9 8.4 70.1 13.8 23.1 5.4 46 12.2 68.9 18.4 2.3 0.6 4.4 1.7 7.4 2.9-13 30.2-25.8 60-38.9 90.3zm-484.2-47.8c3.2 11.6 6.5 23.1 9.6 34.6 0.9 3.4 2.7 4.1 5.8 3.3 8.3-2.1 16.8-3.2 24.7-6.1 6.5-2.4 12.8-6.2 18.3-10.5 5.6-4.5 7.1-11.3 4.7-18.2-2.4-7-6.3-12.9-14.6-14-2.5-0.3-4.9-1.3-7.7-2.1 1.5-2.2 2.6-3.6 3.6-5.1 4.2-6.2 4.4-13-0.1-18.9-4-5.3-9.4-8.7-16.3-9.7-13.9-1.9-26.2 4.7-39.9 6.5 4 13.7 7.8 26.6 11.9 40.2zm155.6-68.3c-7.1 0.5-14.3 1.1-21.4 1.3-3.8 0.1-4.8 1.5-4.3 5.2 2.1 16.9 3.9 33.7 5.9 50.6 1 8.7 2 17.4 3.1 26.4 4.2-0.4 7.8-0.6 11.4-1.2 11.7-1.8 23.7-1.7 34.5-7.2 7.8-4 12.1-10.1 11.6-19.2-0.4-9.3-5.4-14.7-13.7-17.7-1.9-0.6-3.8-1.4-7.1-2.7 2.4-1.8 3.8-2.9 5.2-4 7.2-6.4 7.3-18.3 0-24.6-7-6-15.3-7.7-25.2-6.9zm-88.9 53.7c1.9 13.2 3.8 26.5 5.8 40.2 7-1.4 12.9-2.6 18.8-3.7-0.3-3.7-0.5-6.5-0.7-9.3-0.9-12.2-0.8-12.1 11.3-13.2 2.5-0.3 3.5 0.4 4.2 2.8 1.4 4.8 3.2 9.5 5 14.1 0.5 1 1.8 2.5 2.6 2.4 5.2-0.7 10.4-1.7 15.8-2.6-0.5-2.4-0.7-4.4-1.3-6.3-6.2-19.6-12.4-39.3-18.8-58.9-3.5-10.5-8.6-13.3-19.4-11.7-8.7 1.3-17.4 2.8-26.1 4-2.8 0.4-3.6 1.6-3.1 4.4 2 12.3 3.8 24.6 5.9 37.8zm250.7 20.2c5.8-2.8 12.1-4.9 17.3-8.6 17.7-12.5 21.6-35.9 8.4-52-7-8.5-16.2-13.3-26.4-16.1-6-1.6-12.2-2.2-18.6-3.4-3.2 28.5-6.3 55.6-9.5 84.2 10.4-1.4 19.2-2.6 28.8-4.1zm36.3-24.7c-0.1 5.6-0.6 11.3 0 16.8 1.5 11.7 7.4 20.4 19.1 23.7 11.5 3.3 21.1-0.5 28.3-9.7 11.9-15.3 15.8-32.8 12.1-51.7-2.1-10.3-8.2-17.9-18.9-20.5-10.1-2.5-18.7 0.3-25.9 7.8-8.7 9.2-12.7 20.5-14.7 33.6zm65.6 34.6c7 12.4 17.6 19.4 31.3 22.7 4.7 1.2 6.7-0.1 8.1-4.3 1.8-5.7 3.9-11.3 6-16.9 2-5.6 4.2-11.1 6.5-17.3-5.6-1.8-10.7-3.1-15.6-5-4.2-1.6-5.7 0.2-6.9 3.8-1.6 4.9-3.4 9.8-5.3 15.1-6.9-7.6-7.8-19.7-2.6-27.4 5.8-8.6 13.5-13.5 24.2-13.3 1.7 0.1 4.4-0.7 4.9-1.9 1.9-4.3 3.1-9 4.8-14-17.8-2.7-34.3-1.8-47 12.2-11.9 13.2-14.7 28.7-8.4 46.3zm-209.6-31.8c0.3 8.1 0.7 16.2 1 24.3 4.9 0 9.2 0.1 13.5 0 9.5-0.2 9.5-0.2 8.8-9.6-0.9-12.7-0.5-25.1 4.2-37.4 4.3-11.2 6.7-23.2 9.9-34.9-5.4 0-10.5 0.2-15.6 0-3.2-0.2-4.4 1.2-5.1 4-1.5 5.8-3.4 11.5-5.1 17.3-2.8-5.8-4.4-11.6-6.2-17.2-0.5-1.4-1.8-3.3-2.9-3.4-5.8-0.3-11.7-0.1-18.5-0.1 1.8 5.6 3.2 9.9 4.4 14.2 3.9 13.9 7.7 27.9 11.6 42.8z"/>
	<path id="Layer" class="s15" d="m379.3 621c0 2.4-0.4 4.8 0 7 0.3 1.3 1.8 2.4 2.7 3.6 0.9-1.3 2.6-2.5 2.7-3.9 0.2-2.7-0.5-5.5-0.8-8.6 4.6-0.5 4.9 3.2 5.4 6.8 1.3 8.6-2.2 14.9-9.7 15.3 1.2-1 2.6-1.7 3.4-2.9 0.9-1.1 1.1-2.6 2-5.3-5.6 3-8.4 0.7-10-3.4-1.7-4-0.5-7.3 3.7-9.4 0.5 0.5 0.5 0.7 0.6 0.8z"/>
	<path id="Layer" class="s16" d="m341.9 631.6q0-2.7 0-5.5-0.8-0.1-1.5-0.1c-2.7 3.5-2.2 7.8-1.1 11.6 0.5 1.9 3.7 3.1 5.5 4.4-4.9 3.7-10.2 1.6-11.3-5.6-1-6.7 2.6-12.1 7.9-11.9 3.6 0.2 6 1.8 6 5.8 0 4.5-3.2 3.6-6 2.9 0.2-0.9 0.3-1.2 0.5-1.6z"/>
	<path id="Layer" class="s17" d="m364.9 642.1c1.2-7.5 1.8-14.7-0.8-22 1.6-0.4 3.6-0.9 6.2-1.5 0 8.4 0 16.2 0 24.8-1.7-0.3-3.7-0.7-5.4-1.3z"/>
	<path id="Layer" class="s18" d="m268 617.2c7.6-0.3 10.9 2.9 11.1 10.5 0.3 10.5-2.2 14.3-10.8 15.1-0.4-0.3-0.3-0.8 0.1-0.8 2-1.8 4.8-3.3 5.2-5.4 0.9-4.1 1.1-8.6 0.3-12.6-0.5-2.2-3.7-3.8-5.8-6-0.1-0.4-0.1-0.6-0.1-0.8z"/>
	<path id="Layer" class="s19" d="m324.8 627c-0.1-0.2-0.3-0.4-0.6-1.1-0.1-0.4-0.1-0.5-0.1-0.5 0 0 0-0.3 0.5-0.4 0.3-2.1 0.3-4.1 0.2-6-0.2-0.4-0.5-0.8-0.5-1.8 0.3-0.9 0.5-1.4 0.7-1.8 1.5-0.1 2.9-0.2 4.6-0.4 0 9.4 0 18.5 0 27.6-4.8 1.2-5.3 0.6-4.8-7.3 0.4-1.4 0.4-2.3 0.3-3.3 0-0.7-0.1-1.5 0.1-2.8 0.1-1.1-0.2-1.6-0.4-2.2z"/>
	<path id="Layer" class="s20" d="m323.7 625.4c0.4 0 0.4 0.1 0.4 0.2-1.1 0.4-2.7 0.5-3.3 1.3-2.2 3.2-1.3 10.7 1.9 14.7-1.7 0.6-3.4 1.9-4.6 1.6-1.2-0.3-2.8-2.1-3-3.4-0.3-3.6-0.4-7.3 0.3-10.8 0.7-3.9 4-5.1 8.3-3.6z"/>
	<path id="Layer" class="s21" d="m401.7 618.2c5.4 2.1 7.2 5.4 6.5 11.7-0.8 7.2-5 12.2-10.4 12.9 1.6-2.7 3.3-5.5 4.6-8.6-0.4-0.2-0.4-0.2 0 0 0.1-0.5-0.2-1-0.4-1.6 0 0 0 0 0-0.5 2.7-4.9 1.5-9.4-0.3-13.9z"/>
	<path id="Layer" class="s22" d="m417 642c1.3-2.9 2.6-5.8 3.4-8.9-0.4-0.6-0.4-0.9-0.2-1.5 0.1-4.4 0-8.5-0.1-12.6 1.6 0.6 3.8 0.8 4.7 1.9 4.1 5.1 0.8 18.2-5.1 21.1-0.5 0.3-1.3 0.1-2.3 0-0.4 0-0.4 0-0.4 0z"/>
	<path id="Layer" class="s23" d="m268 642c0 0-0.1 0.5 0 0.7-1.1 0.3-2.2 0.4-3.6-0.1-0.4-6.9-0.3-13.2-0.5-19.4 0-1.5-1-2.9-1.5-4.3 1.6-0.6 3.2-1.2 5.2-1.7 0.4 0.2 0.4 0.4 0.5 1.3 0 8.3 0 15.9-0.1 23.5z"/>
	<path id="Layer" class="s15" d="m288.4 634.1c0 6.5 0.2 6.7 6.8 7.2q0.1 0.7 0.1 1.4c-2.6 0.1-5.8 1.1-7.9 0.1-2-1.1-4-4.3-4-6.6 0-3.4 1.7-6.8 3.5-10.2 1.1 0.1 1.5 0.2 1.7 0.7-0.1 2.7-0.2 5-0.2 7.4z"/>
	<path id="Layer" class="s24" d="m306.7 641.8c1.2-2.8-0.1-4.4-2.3-6.1-1.9-1.5-3.5-3.8-4.3-6.1-0.4-1 1.5-2.8 2.3-4.1 2.4 2.7 3.9 4.7 5.7 6.3 3.9 3.4 3.9 7-0.6 10.6-0.6-0.3-0.7-0.4-0.8-0.6z"/>
	<path id="Layer" class="s25" d="m402 632.6c0 0 0 0-0.3 0.3 0 0.7 0.1 0.9 0.3 1.1 0 0 0 0 0 0-3.7 0.5-7.1 0.7-8.2-4.4-1.1-5.4 0.1-8.7 5.1-10.7-2.3 8.1-1.6 11.2 3.1 13.7z"/>
	<path id="Layer" class="s26" d="m419.7 619c0.5 4.1 0.6 8.2 0.1 12.6-1.6-1.3-3-2.7-3.5-4.4-0.7-2.3-0.9-4.9-1.3-7.3 1.5-0.3 2.9-0.6 4.7-0.9z"/>
	<path id="Layer" class="s17" d="m414.7 620c0.7 2.3 0.9 4.9 1.6 7.2 0.5 1.7 1.9 3.1 3.3 4.7 0.4 0.3 0.4 0.6 0.4 1.1-1.8 0.3-4.6 1.2-5.1 0.4-1.7-2.2-3.1-5-3.4-7.8-0.2-1.7 1.8-3.6 3.2-5.6z"/>
	<path id="Layer" class="s27" d="m402 632.1c-4.7-2-5.4-5.1-2.7-13.3 0.6-0.6 1.3-0.7 2.2-0.7 2 4.6 3.2 9.1 0.5 14z"/>
	<path id="Layer" class="s28" d="m288.7 626.2c-0.3 0-0.7-0.1-1.5-0.3 2.1-0.2 5.1-1.1 7.4-0.2 1.3 0.6 2.5 4.2 2 5.9-0.4 1.3-3.7 1.6-6 2 0.2-1.9 1.4-3.5 1.4-5 0.1-1.7-0.2-4.5-3.3-2.4z"/>
	<path id="Layer" class="s18" d="m262.4 619.4c0.5 0.9 1.5 2.3 1.5 3.8 0.2 6.2 0.1 12.5 0.1 19.3-0.5-0.5-1.3-1.5-1.3-2.5-0.2-6.7-0.2-13.4-0.3-20.6z"/>
	<path id="Layer" class="s29" d="m288.6 626.7c3.2-2.6 3.5 0.2 3.4 1.9 0 1.5-1.2 3.1-1.8 5-0.4 0.4-0.8 0.5-1.5 0.5-0.3-2.4-0.2-4.7-0.1-7.4z"/>
	<path id="Layer" class="s30" d="m307.1 642.5c-6.3 2.1-7.7 1.4-7.3-3 2.1 0.8 4.1 1.5 6.6 2.3 0.4 0.2 0.5 0.3 0.7 0.7z"/>
	<path id="Layer" class="s20" d="m324.8 619.4c0.1 1.5 0.1 3.5-0.1 5.6-0.2-1.6 0-3.4 0.1-5.6z"/>
	<path id="Layer" class="s31" d="m379.6 621c-0.4-0.1-0.4-0.3-0.5-0.8 0.5-0.6 1.2-0.9 1.8-1.2-0.3 0.7-0.7 1.3-1.3 2z"/>
	<path id="Layer" class="s20" d="m325 632.3c0.2 0.7 0.2 1.6 0 2.6-0.2-0.7-0.2-1.5 0-2.6z"/>
	<path id="Layer" class="s20" d="m324.8 615.3c0 0.5-0.2 1-0.6 1.6 0-0.5 0.2-1.1 0.6-1.6z"/>
	<path id="Layer" class="s20" d="m324.8 627.2c0.2 0.4 0.5 0.9 0.5 1.6-0.3-0.3-0.5-0.8-0.5-1.6z"/>
	<path id="Layer" class="s22" d="m417 642q-0.3 0.3-0.6 0.7c0.2-0.1 0.4-0.2 0.7-0.5-0.1-0.2-0.1-0.2-0.1-0.2z"/>
	<path id="Layer" class="s32" d="m341.6 631.7c0.1 0.3 0 0.6-0.4 1.1-0.1-0.2 0-0.5 0.4-1.1z"/>
	<path id="Layer" fill-rule="evenodd" class="s33" d="m211.1 285c-5.3-2.2-10.3-4.1-15.1-6.5-15.8-8-23-20.3-20.5-37.9 3.8-26.5 8.2-52.9 12.9-79.3 2.6-14.7 23-25.7 37.7-19.9 14.5 5.6 28.6 12.6 42.8 19.2 8.2 3.9 16.8 7.5 24.3 12.6 4.9 3.2 8.1 8.9 12.2 13.3 1.2 1.2 3 2.5 4.5 2.5q33.2 0 66.4-0.5c1.7 0 4.3-1.5 4.8-2.9 4.1-10.8 12.3-16.9 22.4-21.5 17.2-7.7 34-16.2 51.1-24.1 16-7.3 30.7-4 41.1 9.2 1.9 2.4 3.4 5.5 3.9 8.4 4.5 26.3 8.8 52.5 12.8 78.9 2 12.9-2.5 29.7-18.6 37.5-10.6 5.2-21 10.3-33.2 9.5-1-0.1-3 1.7-3.2 2.9-0.4 2.9-0.2 6-0.1 9 0.6 30.3-9.2 57.5-24.4 83.1-11.2 18.8-25.4 34.7-44.3 45.9-28.2 16.7-56.8 16.6-84.8-0.1-28.2-16.9-45.1-43.3-57.6-72.8-7.1-16.8-10.7-34.3-10.4-52.6 0.1-4.1 0-8.2 0-11.5-8.5-0.8-16.4-1.5-24.7-2.4zm48.8 67.5c4.6 8.3 8.9 16.8 13.8 24.9 9.4 15 21.3 27.7 36.8 36.7 8.9 5.1 18.3 9 29.2 10.3 0-9 0.2-17.3-0.1-25.6-0.1-3-0.8-6.4-2.2-9q-9.3-16.8-19.3-33.3c-5.9-9.8-1.8-18.4 9.7-19.2 6-0.5 12-0.3 18-0.3 6.7 0.1 13.4-0.2 20 0.5 9.7 1.1 13.7 9.4 9 17.8q-9.9 17.6-19.7 35.3c-0.9 1.6-2 3.3-2.1 5-0.2 9.5-0.1 18.9-0.1 28.9 3.3-0.6 6.1-0.9 8.7-1.7 18.8-5.5 34.2-16.2 46.8-31 25.2-29.9 37.6-64.3 37-103.5-0.2-6.7-0.7-12.2-7-16.1-2.9-1.7-5-4.8-7.3-7.4-13.8-15.8-27.7-31.5-41.4-47.4-3.2-3.8-5.5-8.3-8.7-12.1-1.4-1.7-3.7-3.6-5.7-3.8-20.6-2-41.2-2-61.8 0.3-3.4 0.3-5.4 1.3-6.1 5.1-0.6 3-2.1 6.1-4.1 8.4-17.8 20.5-35.8 40.8-53.6 61.3-1.2 1.3-2.3 3.4-2.4 5.1-0.8 24.2 1.7 47.9 12.6 70.8zm146.1-134c12.4 14.1 24.6 28.4 37.2 42.4 9.1 10.1 20 12.6 32.5 7.8 5.3-2 10.3-4.7 15.4-7.2 5.2-2.5 8.6-6.7 8.8-12.4 0.3-7.3 0.5-14.6-0.6-21.8-3.1-21.5-6.8-43-10.4-64.5-0.4-2.5-1.6-5.1-3.2-7.1-6.1-7.5-14.8-9.7-24.2-5.5-20.1 9.1-40.2 18.5-60.1 28.2-10.2 5.1-12.9 18.2-6.1 27.3 3.1 4.3 6.8 8.2 10.7 12.8zm-197.5-14.7c7.4-1 12.8 2.5 17.4 7.7 1.9 2.2 3.6 4.4 5.6 6.4 8.4 8.2 16.9 16.1 29.1 18.4 5.9 1.1 10.3-0.4 14-5 5.3-6.7 10.4-13.6 16.6-19.4 8.8-8.2 5.7-24.9-5.3-29.8-20.4-9.3-40.5-19.5-60.9-28.8-11.5-5.2-24 2.3-25.8 14.9-0.5 3.3-1.2 6.6-1.7 9.8-1.5 9.5-3 19-4.7 29.3 3.1-1 5.2-2 7.4-2.5 2.4-0.5 4.9-0.7 8.3-1z"/>
	<path id="Layer" fill-rule="evenodd" class="s34" d="m108.4 555.7c-4-13.3-7.8-26.2-11.8-39.9 13.7-1.8 26-8.4 39.9-6.5 6.9 1 12.3 4.4 16.3 9.7 4.5 5.9 4.3 12.7 0.1 18.9-1 1.5-2.1 2.9-3.6 5.1 2.8 0.8 5.2 1.8 7.7 2.1 8.3 1.1 12.2 7 14.6 14 2.4 6.9 0.9 13.7-4.7 18.2-5.5 4.3-11.8 8.1-18.3 10.5-7.9 2.9-16.4 4-24.7 6.1-3.1 0.8-4.9 0.1-5.8-3.3-3.1-11.5-6.4-23-9.7-34.9zm34.2 18.6c2.3-1.7 4.9-3 6.7-5.1 4.6-5.4 1.9-13.4-5.1-14.6-3.6-0.7-7.5-0.1-11.3 0.5-0.9 0.1-2.2 2.6-2 3.7 0.9 4.2 2.3 8.3 3.5 12.5 1.7 5.7 1.7 5.7 8.2 3zm-16.6-34.6c0.4 0.4 0.8 1.3 1.2 1.3 4.3 0.5 9.8-4.4 9.7-8.7 0-4.2-3.5-6.8-8.8-6.3-2 0.1-3.9 1-6.3 1.6 1.5 4.2 2.7 7.8 4.2 12.1z"/>
	<path id="Layer" fill-rule="evenodd" class="s34" d="m264.6 487.7c9.4-0.8 17.7 0.9 24.7 6.9 7.3 6.3 7.2 18.2 0 24.6-1.4 1.1-2.8 2.2-5.2 4 3.3 1.3 5.2 2.1 7.1 2.7 8.3 3 13.3 8.4 13.7 17.7 0.5 9.1-3.8 15.2-11.6 19.2-10.8 5.5-22.8 5.4-34.5 7.2-3.6 0.6-7.2 0.8-11.4 1.2-1.1-9-2.1-17.7-3.1-26.4-2-16.9-3.8-33.7-5.9-50.6-0.5-3.7 0.5-5.1 4.3-5.2 7.1-0.2 14.3-0.8 21.9-1.3zm-0.1 46.1c0.8 6.8 1.7 13.7 2.7 21.7 5-2 9-3.3 12.9-5.2 3.5-1.7 4.7-4.8 4.3-8.7-0.4-4-2.5-6.8-6.2-7.5-4.3-0.8-8.8-0.6-13.7-0.3zm3.6-29.8c-2.3 0.1-4.5 0.2-7.2 0.4 0.6 5.1 1.2 9.6 1.7 14 8.2-0.6 12.8-3.1 13-7 0.2-4.5-2.7-6.5-7.5-7.4z"/>
	<path id="Layer" fill-rule="evenodd" class="s34" d="m175.1 541c-2-12.8-3.8-25.1-5.8-37.4-0.5-2.8 0.3-4 3.1-4.4 8.7-1.2 17.4-2.7 26.1-4 10.8-1.6 15.9 1.2 19.4 11.7 6.4 19.6 12.6 39.3 18.8 58.9 0.6 1.9 0.8 3.9 1.3 6.3-5.4 0.9-10.6 1.9-15.8 2.6-0.8 0.1-2.1-1.4-2.6-2.4-1.8-4.6-3.6-9.3-5-14.1-0.7-2.4-1.7-3.1-4.2-2.8-12.1 1.1-12.2 1-11.3 13.2 0.2 2.8 0.4 5.6 0.7 9.3-5.9 1.1-11.8 2.3-18.8 3.7-2-13.7-3.9-27-5.9-40.6zm22.8-27.4q-1.8-2-3.6-4.1c-0.4 1.8-1.2 3.6-1 5.3q0.7 9.5 2 18.8c0.2 1.2 1.8 3.1 2.7 3.1 2.3 0 4.6-0.9 7.4-1.6-2.6-7.3-4.9-14-7.5-21.5z"/>
	<path id="Layer" fill-rule="evenodd" class="s35" d="m425.5 561.7c-9.2 1.4-18 2.6-28.4 4 3.2-28.6 6.3-55.7 9.5-84.2 6.4 1.2 12.6 1.8 18.6 3.4 10.2 2.8 19.4 7.6 26.4 16.1 13.2 16.1 9.3 39.5-8.4 52-5.2 3.7-11.5 5.8-17.7 8.7zm5.2-55c-1.3-0.6-2.6-1.2-4.6-2.1-1.8 13.8-3.6 26.8-5.5 40.3 8.4-0.7 12.3-5.5 14.5-11.7 3.3-9.2 3.4-18.2-4.4-26.5z"/>
	<path id="Layer" fill-rule="evenodd" class="s35" d="m462.2 536.4c2-12.6 6-23.9 14.7-33.1 7.2-7.5 15.8-10.3 25.9-7.8 10.7 2.6 16.8 10.2 18.9 20.5 3.7 18.9-0.2 36.4-12.1 51.7-7.2 9.2-16.8 13-28.3 9.7-11.7-3.3-17.6-12-19.1-23.7-0.6-5.5-0.1-11.2 0-17.3zm32.9 18.1c5.2-11.1 8.1-22.6 6.5-34.8-0.3-2.7-2.8-5.2-4.3-7.8-2.4 1.8-5.7 3-7.1 5.3-6.6 10.8-9 22.9-7.9 35.4 0.2 3.1 2.8 5.9 4.3 8.9q3.8-2.8 7.6-5.6c0.2-0.2 0.3-0.5 0.9-1.4z"/>
	<path id="Layer" class="s35" d="m527.7 571.1c-6.2-17.2-3.4-32.7 8.5-45.9 12.7-14 29.2-14.9 47-12.2-1.7 5-2.9 9.7-4.8 14-0.5 1.2-3.2 2-4.9 1.9-10.7-0.2-18.4 4.7-24.2 13.3-5.2 7.7-4.3 19.8 2.6 27.4 1.9-5.3 3.7-10.2 5.3-15.1 1.2-3.6 2.7-5.4 6.9-3.8 4.9 1.9 10 3.2 15.6 5-2.3 6.2-4.5 11.7-6.5 17.3-2.1 5.6-4.2 11.2-6 16.9-1.4 4.2-3.4 5.5-8.1 4.3-13.7-3.3-24.3-10.3-31.4-23.1z"/>
	<path id="Layer" class="s34" d="m318.1 539.2c-3.8-14.4-7.6-28.4-11.5-42.3-1.2-4.3-2.6-8.6-4.4-14.2 6.8 0 12.7-0.2 18.5 0.1 1.1 0.1 2.4 2 2.9 3.4 1.8 5.6 3.4 11.4 6.2 17.2 1.7-5.8 3.6-11.5 5.1-17.3 0.7-2.8 1.9-4.2 5.1-4 5.1 0.2 10.2 0 15.6 0-3.2 11.7-5.6 23.7-9.9 34.9-4.7 12.3-5.1 24.7-4.2 37.4 0.7 9.4 0.7 9.4-8.8 9.6-4.3 0.1-8.6 0-13.5 0-0.3-8.1-0.7-16.2-1.1-24.8z"/>
	<path id="Layer" class="s36" d="m268.4 642c-0.3-7.6-0.3-15.2-0.2-23.2 2 1.4 5.2 3 5.7 5.2 0.8 4 0.6 8.5-0.3 12.6-0.4 2.1-3.2 3.6-5.2 5.4z"/>
	<path id="Layer" class="s1" d="m402.4 634.2c-0.6-0.4-0.7-0.6-0.7-1.2 0.5 0.2 0.8 0.7 0.7 1.2z"/>
	<path id="Layer" fill-rule="evenodd" class="s23" d="m259.7 352.2c-10.7-22.6-13.2-46.3-12.4-70.5 0.1-1.7 1.2-3.8 2.4-5.1 17.8-20.5 35.8-40.8 53.6-61.3 2-2.3 3.5-5.4 4.1-8.4 0.7-3.8 2.7-4.8 6.1-5.1 20.6-2.3 41.2-2.3 61.8-0.3 2 0.2 4.3 2.1 5.7 3.8 3.2 3.8 5.5 8.3 8.7 12.1 13.7 15.9 27.6 31.6 41.4 47.4 2.3 2.6 4.4 5.7 7.3 7.4 6.3 3.9 6.8 9.4 7 16.1 0.6 39.2-11.8 73.6-37 103.5-12.6 14.8-28 25.5-46.8 31-2.6 0.8-5.4 1.1-8.7 1.7 0-10-0.1-19.4 0.1-28.9 0.1-1.7 1.2-3.4 2.1-5q9.8-17.7 19.7-35.3c4.7-8.4 0.7-16.7-9-17.8-6.6-0.7-13.3-0.4-20-0.5-6 0-12-0.2-18 0.3-11.5 0.8-15.6 9.4-9.7 19.2q10 16.5 19.3 33.3c1.4 2.6 2.1 6 2.2 9 0.3 8.3 0.1 16.6 0.1 25.6-10.9-1.3-20.3-5.2-29.2-10.3-15.5-9-27.4-21.7-36.8-36.7-4.9-8.1-9.2-16.6-14-25.2zm46.7-68.3c-10.6-2.2-19.2 5.2-17.1 14.9 1.4 6.1 6.7 10.3 12.9 10.5 6.2 0.1 11.9-4.2 13.2-10.1 1.4-6.6-1.3-11.7-9-15.3zm73.7 21.5c0.5 0.4 1 0.9 1.5 1.3 6.3 4.3 13.8 3.3 18.3-2.5 4.2-5.5 3.6-12.8-1.5-17.5-4.8-4.4-13.1-4.4-17.9-0.1-5.4 4.8-5.8 12.1-0.4 18.8z"/>
	<path id="Layer" class="s23" d="m405.8 218.2c-3.7-4.3-7.4-8.2-10.5-12.5-6.8-9.1-4.1-22.2 6.1-27.3 19.9-9.7 40-19.1 60.1-28.2 9.4-4.2 18.1-2 24.2 5.5 1.6 2 2.8 4.6 3.2 7.1 3.6 21.5 7.3 43 10.4 64.5 1.1 7.2 0.9 14.5 0.6 21.8-0.2 5.7-3.6 9.9-8.8 12.4-5.1 2.5-10.1 5.2-15.4 7.2-12.5 4.8-23.4 2.3-32.5-7.8-12.6-14-24.8-28.3-37.4-42.7z"/>
	<path id="Layer" class="s37" d="m208.1 203.8c-3 0.3-5.5 0.5-7.9 1-2.2 0.5-4.3 1.5-7.4 2.5 1.7-10.3 3.2-19.8 4.7-29.3 0.5-3.2 1.2-6.5 1.7-9.8 1.8-12.6 14.3-20.1 25.8-14.9 20.4 9.3 40.5 19.5 60.9 28.8 11 4.9 14.1 21.6 5.3 29.8-6.2 5.8-11.3 12.7-16.6 19.4-3.7 4.6-8.1 6.1-14 5-12.2-2.3-20.7-10.2-29.1-18.4-2-2-3.7-4.2-5.6-6.4-4.6-5.2-10-8.7-17.8-7.7z"/>
	<path id="Layer" class="s38" d="m142.3 574.5c-6.2 2.5-6.2 2.5-7.9-3.2-1.2-4.2-2.6-8.3-3.5-12.5-0.2-1.1 1.1-3.6 2-3.7 3.8-0.6 7.7-1.2 11.3-0.5 7 1.2 9.7 9.2 5.1 14.6-1.8 2.1-4.4 3.4-7 5.3z"/>
	<path id="Layer" class="s39" d="m125.8 539.3c-1.3-3.9-2.5-7.5-4-11.7 2.4-0.6 4.3-1.5 6.3-1.6 5.3-0.5 8.8 2.1 8.8 6.3 0.1 4.3-5.4 9.2-9.7 8.7-0.4 0-0.8-0.9-1.4-1.7z"/>
	<path id="Layer" class="s38" d="m264.7 533.5c4.7 0 9.2-0.2 13.5 0.6 3.7 0.7 5.8 3.5 6.2 7.5 0.4 3.9-0.8 7-4.3 8.7-3.9 1.9-7.9 3.2-12.9 5.2-1-8-1.9-14.9-2.5-22z"/>
	<path id="Layer" class="s40" d="m268.5 504.1c4.4 0.8 7.3 2.8 7.1 7.3-0.2 3.9-4.8 6.4-13 7-0.5-4.4-1.1-8.9-1.7-14 2.7-0.2 4.9-0.3 7.6-0.3z"/>
	<path id="Layer" class="s41" d="m198 514c2.5 7.1 4.8 13.8 7.4 21.1-2.8 0.7-5.1 1.6-7.4 1.6-0.9 0-2.5-1.9-2.7-3.1q-1.3-9.3-2-18.8c-0.2-1.7 0.6-3.5 1-5.3 1.2 1.4 2.4 2.8 3.7 4.5z"/>
	<path id="Layer" class="s42" d="m431 506.9c7.5 8.1 7.4 17.1 4.1 26.3-2.2 6.2-6.1 11-14.5 11.7 1.9-13.5 3.7-26.5 5.5-40.3 2 0.9 3.3 1.5 4.9 2.3z"/>
	<path id="Layer" class="s43" d="m494.9 554.8c-0.4 0.6-0.5 0.9-0.7 1.1q-3.8 2.8-7.6 5.6c-1.5-3-4.1-5.8-4.3-8.9-1.1-12.5 1.3-24.6 7.9-35.4 1.4-2.3 4.7-3.5 7.1-5.3 1.5 2.6 4 5.1 4.3 7.8 1.6 12.2-1.3 23.7-6.7 35.1z"/>
	<path id="Layer" class="s44" d="m306.8 284c7.3 3.5 10 8.6 8.6 15.2-1.3 5.9-7 10.2-13.2 10.1-6.2-0.2-11.5-4.4-12.9-10.5-2.1-9.7 6.5-17.1 17.5-14.8z"/>
	<path id="Layer" class="s45" d="m379.8 305.1c-5.1-6.4-4.7-13.7 0.7-18.5 4.8-4.3 13.1-4.3 17.9 0.1 5.1 4.7 5.7 12 1.5 17.5-4.5 5.8-12 6.8-18.3 2.5-0.5-0.4-1-0.9-1.8-1.6z"/>
</svg>